<?xml version="1.0"?>
<svg width="600" height="400" xmlns="http://www.w3.org/2000/svg" xmlns:svg="http://www.w3.org/2000/svg">
 <!-- Background -->
 <!-- Level Boxes -->
 <!-- Level Titles -->
 <!-- Emphasis Arrows showing strong influence downward -->
 <!-- Small upward arrows showing weaker influence -->
 <!-- Quotes from text -->
 <!-- Complete Understanding Box -->
 <!-- Partial Understanding Box -->
 <g class="layer">
  <title>Layer 1</title>
  <rect fill="white" height="400" id="svg_1" width="600"/>
  <rect fill="#E3F2FD" height="100" id="svg_2" rx="10" stroke="#1565C0" stroke-width="3" width="500" x="50" y="40"/>
  <rect fill="#E8F5E9" height="70" id="svg_3" rx="10" stroke="#2E7D32" stroke-width="2" width="400" x="100" y="170"/>
  <rect fill="#FFF3E0" height="70" id="svg_4" rx="10" stroke="#EF6C00" stroke-width="2" width="300" x="150" y="270"/>
  <text fill="#1565C0" font-family="Arial" font-size="22" font-weight="bold" id="svg_5" text-anchor="middle" x="300" y="75">Computational Theory</text>
  <text fill="#1565C0" font-family="Arial" font-size="16" id="svg_6" text-anchor="middle" x="300" y="105">(What and Why)</text>
  <text fill="#1565C0" font-family="Arial" font-size="12" id="svg_7" text-anchor="middle" x="300" y="125">&quot;Natural constraints, Task requirements&quot;</text>
  <text fill="#2E7D32" font-family="Arial" font-size="16" font-weight="bold" id="svg_8" text-anchor="middle" x="300" y="195">Representation and Algorithm</text>
  <text fill="#2E7D32" font-family="Arial" font-size="14" id="svg_9" text-anchor="middle" x="300" y="220">(How)</text>
  <text fill="#2E7D32" font-family="Arial" font-size="12" id="svg_10" text-anchor="middle" x="300" y="235">&quot;Efficiency, Robustness&quot;</text>
  <text fill="#EF6C00" font-family="Arial" font-size="14" font-weight="bold" id="svg_11" text-anchor="middle" x="300" y="295">Hardware Implementation</text>
  <text fill="#EF6C00" font-family="Arial" font-size="12" id="svg_12" text-anchor="middle" x="300" y="320">(Physical Realization)</text>
  <text fill="#EF6C00" font-family="Arial" font-size="12" id="svg_13" text-anchor="middle" x="300" y="335">&quot;Energy limits, Physical constraints&quot;</text>
  <path d="m300,140l0,30m-10,-10l10,10l10,-10" fill="none" id="svg_14" stroke="#1565C0" stroke-width="3"/>
  <path d="m300,240l0,30m-10,-10l10,10l10,-10" fill="none" id="svg_15" stroke="#1565C0" stroke-width="2"/>
  <path d="m320,160l0,-20m-5,10l5,-10l5,10" fill="none" id="svg_16" stroke="#666" stroke-dasharray="4,4"/>
  <path d="m320,260l0,-20m-5,10l5,-10l5,10" fill="none" id="svg_17" stroke="#666" stroke-dasharray="4,4"/>
  <rect fill="none" height="360" id="svg_18" rx="30" stroke="#333" stroke-dasharray="5,5" stroke-width="2" width="550" x="25" y="20"/>
  <text fill="#333" font-family="Arial" font-size="16" font-weight="bold" id="svg_19" text-anchor="middle" x="300" y="35">Complete Understanding</text>
  <rect fill="none" height="110" id="svg_22" rx="20" stroke="#333" stroke-dasharray="5,5" stroke-width="2" width="310" x="145" y="255"/>
  <text fill="#333" font-family="Arial" font-size="14" font-weight="bold" id="svg_23" text-anchor="middle" x="300" y="355">Partial Understanding</text>
 </g>
</svg>